<?xml version="1.0" encoding="iso-8859-1"?>
<!-- Generator: Adobe Illustrator 19.0.0, SVG Export Plug-In . SVG Version: 6.00 Build 0)  -->
<svg version="1.1" id="Layer_1" xmlns="http://www.w3.org/2000/svg" xmlns:xlink="http://www.w3.org/1999/xlink" x="0px" y="0px"
	 viewBox="0 0 505 505" style="enable-background:new 0 0 505 505;" xml:space="preserve">
<path style="fill:#7397f0;" d="M505,252.5C505,392,392,505,252.5,505S0,392,0,252.5C0,113.1,113,0,252.5,0
	c110.1,0,203.7,70.5,238.3,168.7c7.4,21,12.1,43.3,13.7,66.5C504.8,240.9,505,246.7,505,252.5z"/>
<path style="fill:#7397f0;" d="M38.6,386.6C83.3,457.7,162.3,505,252.5,505s169.2-47.3,213.9-118.4H38.6z"/>
<path style="fill:#324A5E;" d="M445.1,354.4H59.9c-3.1,0-5.1,3.3-3.6,6l6.1,11.4c4.8,9,14.1,14.5,24.3,14.5h331.6
	c10.2,0,19.5-5.6,24.3-14.5l6.1-11.4C450.1,357.7,448.2,354.4,445.1,354.4z"/>
<path style="fill:#2B3B4E;" d="M417.2,354.4H90.4c-1.4,0-2.6-1.1-2.6-2.6V124.5c0-1.4,1.1-2.6,2.6-2.6h326.8c1.4,0,2.6,1.1,2.6,2.6
	v227.3C419.7,353.2,418.6,354.4,417.2,354.4z"/>
<rect x="103.2" y="146.8" style="fill:#FFFFFF;" width="301.2" height="187.1"/>
<circle style="fill:#324A5E;" cx="253.8" cy="134.1" r="5.7"/>
<rect x="138.3" y="163.2" style="fill:#FFD05B;" width="25.4" height="25.4"/>
<g>
	<rect x="178.9" y="163.2" style="fill:#E6E9EE;" width="60.2" height="8.6"/>
	<rect x="178.9" y="180" style="fill:#E6E9EE;" width="33.1" height="8.6"/>
</g>
<rect x="268.5" y="163.2" style="fill:#54C0EB;" width="25.4" height="25.4"/>
<g>
	<rect x="309" y="163.2" style="fill:#E6E9EE;" width="60.2" height="8.6"/>
	<rect x="309" y="180" style="fill:#E6E9EE;" width="33.1" height="8.6"/>
	<rect x="145.8" y="227.7" style="fill:#E6E9EE;" width="26.2" height="79.7"/>
	<rect x="193.2" y="227.7" style="fill:#E6E9EE;" width="26.2" height="79.7"/>
	<rect x="240.7" y="227.7" style="fill:#E6E9EE;" width="26.2" height="79.7"/>
	<rect x="288.1" y="227.7" style="fill:#E6E9EE;" width="26.2" height="79.7"/>
	<rect x="335.6" y="227.7" style="fill:#E6E9EE;" width="26.2" height="79.7"/>
</g>
<g>
	<rect x="145.8" y="260.7" style="fill:#4CDBC4;" width="26.2" height="46.7"/>
	<rect x="193.2" y="278.2" style="fill:#4CDBC4;" width="26.2" height="29.2"/>
	<rect x="240.7" y="242.9" style="fill:#4CDBC4;" width="26.2" height="64.5"/>
	<rect x="288.1" y="264.9" style="fill:#4CDBC4;" width="26.2" height="42.6"/>
	<rect x="335.6" y="249.6" style="fill:#4CDBC4;" width="26.2" height="57.8"/>
</g>
<polygon style="fill:#ACB3BA;" points="295.7,361.6 209.3,361.6 202,354.4 303,354.4 "/>
<g>
</g>
<g>
</g>
<g>
</g>
<g>
</g>
<g>
</g>
<g>
</g>
<g>
</g>
<g>
</g>
<g>
</g>
<g>
</g>
<g>
</g>
<g>
</g>
<g>
</g>
<g>
</g>
<g>
</g>
</svg>
