<?xml version="1.0" encoding="iso-8859-1"?>
<!-- Generator: Adobe Illustrator 19.0.0, SVG Export Plug-In . SVG Version: 6.00 Build 0)  -->
<svg version="1.1" id="Layer_1" xmlns="http://www.w3.org/2000/svg" xmlns:xlink="http://www.w3.org/1999/xlink" x="0px" y="0px"
	 viewBox="0 0 512 512" style="enable-background:new 0 0 512 512;" xml:space="preserve">
<circle style="fill:#7397f0;" cx="256" cy="256" r="256"/>
<path style="fill:#7397f0;" d="M364.665,146.194c-26.595,32.349-34.949,75.25-44.88,114.978
	c-65.072,34.451-137.256,52.005-209.26,64.341L294.709,509.09c111.583-16.925,199.501-105.884,214.881-217.967L364.665,146.194z"/>
<path style="fill:#FFFFFF;" d="M328.835,256h-256c0,0,12.641,113.778,170.667,113.778v56.889h85.333V256z"/>
<rect x="255.431" y="256" style="fill:#E2E2E2;" width="73.409" height="170.667"/>
<path style="fill:#FEE187;" d="M328.835,256h-256v-8.476c0-11.028,8.94-19.968,19.968-19.968h236.032V256z"/>
<rect x="255.431" y="227.556" style="fill:#FFC61B;" width="73.409" height="28.444"/>
<path style="fill:#FFEDB5;" d="M312.889,426.667h23.416c18.485,0,33.473-14.986,33.473-33.473V157.593
	c0-8.488-6.882-15.37-15.372-15.37h-26.146c-8.488,0-15.372,6.882-15.372,15.37v269.074H312.889z"/>
<g>
</g>
<g>
</g>
<g>
</g>
<g>
</g>
<g>
</g>
<g>
</g>
<g>
</g>
<g>
</g>
<g>
</g>
<g>
</g>
<g>
</g>
<g>
</g>
<g>
</g>
<g>
</g>
<g>
</g>
</svg>
