<?xml version="1.0" encoding="iso-8859-1"?>
<!-- Generator: Adobe Illustrator 19.0.0, SVG Export Plug-In . SVG Version: 6.00 Build 0)  -->
<svg version="1.1" id="Capa_1" xmlns="http://www.w3.org/2000/svg" xmlns:xlink="http://www.w3.org/1999/xlink" x="0px" y="0px"
	 viewBox="0 0 155.301 155.301" style="enable-background:new 0 0 155.301 155.301;" xml:space="preserve">
<g>
	<circle style="fill:#7397f0;" cx="77.651" cy="77.65" r="77.65"/>
	<g>
		<g>
			<path style="fill:#DB853A;" d="M119.009,76.251c-8.57-3.147-16.632,7.428-20.154,12.964c0.501,1.004,0.984,2.14,1.425,3.436
				c0.531,1.569,0.956,3.26,1.284,5.055c2.311-3.735,6.124-9.593,8.964-12.433c4.354-4.355,6.646-2.063,10.315-0.344
				C124.51,86.649,130.47,80.459,119.009,76.251z"/>
			<path style="fill:#FFD6BC;" d="M42.216,51.92c0,2.047,1.628,3.71,3.66,3.776c0.534-2.383,1.332-4.666,2.374-6.811
				c-0.63-0.468-1.407-0.748-2.251-0.748C43.91,48.138,42.216,49.832,42.216,51.92z"/>
			<path style="fill:#FFD6BC;" d="M110.986,51.92c0-2.089-1.693-3.782-3.782-3.782c-0.867,0-1.664,0.294-2.302,0.786
				c1.033,2.135,1.824,4.406,2.355,6.776C109.321,55.671,110.986,53.991,110.986,51.92z"/>
			<path style="fill:#CF7128;" d="M59.279,123.632c-0.181-0.605-0.28-1.235-0.28-1.876v-4.896c0-2.907,0.555-5.441,1.15-7.533
				c-1.557-2.724-2.346-5.874-2.346-9.233c0-3.76,1.168-7.256,3.08-10.186c-1.771-1.017-3.407-2.2-4.94-3.529
				c-1.079,1.514-2.179,3.547-3.102,6.271c-2.518,7.424-2.755,17.407-0.718,29.673c0.419,2.525,2.606,4.314,5.085,4.314
				c0.279,0,0.36-0.023,0.646-0.071c0.479-0.08,0.144-0.227,1.144-0.423v-1.475C58.998,124.275,59.104,123.931,59.279,123.632z"/>
			<path style="fill:#CF7128;" d="M98.855,89.215c-0.552-1.105-1.125-2.042-1.69-2.835c-1.533,1.33-3.196,2.513-4.967,3.529
				c1.912,2.929,3.027,6.426,3.027,10.186c0,3.32-0.77,6.435-2.289,9.135c0.606,2.11,1.063,4.678,1.063,7.631v4.896
				c0,0.621-0.093,1.232-0.258,1.82c0.161,0.311,0.258,0.673,0.258,1.092v1.506c0,0.18,0.723,0.318,1.176,0.393
				c0.285,0.047,0.518,0.07,0.799,0.07c2.477,0,4.637-1.789,5.056-4.314c1.606-9.673,1.776-17.92,0.55-24.618
				c-0.329-1.795-0.762-3.486-1.294-5.055C99.844,91.355,99.356,90.219,98.855,89.215z"/>
			<path style="fill:#FFD6BC;" d="M70.034,121.194h-0.348c-0.583,0-1.137,0.147-1.595,0.41c-0.404-0.263-0.912-0.41-1.494-0.41
				h-0.351c-0.749,0-1.455,0.237-1.961,0.665c-0.436-0.428-1.067-0.665-1.816-0.665h-0.349c-1.026,0-2.186,1.051-2.637,1.831
				c-0.176,0.299-0.486,1.25-0.486,1.644v1.475v1.625c0,1.423,1.702,1.425,3.123,1.425h0.349c0.749,0,1.381-0.412,1.816-1.006
				c0.506,0.594,1.212,1.006,1.961,1.006h0.351c0.582,0,1.09-0.254,1.494-0.642c0.458,0.388,1.012,0.642,1.595,0.642h0.348
				c1.424,0,1.964-0.002,1.964-1.425v-3.1c0-0.043,0.23-0.689,0.228-0.731C72.166,122.593,71.415,121.194,70.034,121.194z"/>
			<path style="fill:#DB853A;" d="M82.752,121.194h0.351c0.748,0,1.379,0.237,1.814,0.665c0.506-0.428,1.212-0.665,1.961-0.665
				h0.351c0.748,0,1.378,0.237,1.813,0.665c0.507-0.428,1.213-0.665,1.963-0.665h0.349c1.004,0,1.898,1.031,2.285,1.775
				c0.164-0.587,0.359-0.591,0.359-1.212v-4.896c0-2.953-0.457-5.521-1.063-7.631c1.52-2.701,2.339-5.815,2.339-9.135
				c0-3.76-1.139-7.256-3.052-10.186c1.771-1.017,3.422-2.199,4.955-3.529c6.651-5.769,10.855-14.275,10.855-23.771
				c0-1.525-0.116-3.023-0.325-4.491c3.437-0.189,6.166-3.029,6.166-6.515c0-3.608-2.927-6.534-6.533-6.534
				c-1.44,0-2.766,0.472-3.846,1.261C98.224,37.629,88.853,31.69,78.06,31.185c0.492-0.583,1.138-1.1,1.732-1.506
				c0.457-0.312-0.057-0.93-0.505-0.758c-1.164,0.448-2.066,1.24-2.627,2.229c-0.031,0-0.063-0.002-0.094-0.002
				c-0.104,0-0.203,0.007-0.306,0.007c0.014-0.354,0.032-0.709,0.059-1.064c0.05-0.638,0.195-1.274,0.281-1.907
				c0.041-0.302,0.44-1.758,0.431-2.525c-0.011-0.841-0.431-0.983-0.431-0.983c-0.273-0.095-0.613-0.001-0.778,0.336
				c-0.815,1.667-1.093,3.999-1.012,6.188c-10.611,0.583-19.818,6.423-25.065,14.961c-1.034-0.688-2.273-1.09-3.609-1.09
				c-3.609,0-6.533,2.926-6.533,6.534c0,3.37,2.552,6.143,5.829,6.494c-0.212,1.473-0.328,2.979-0.328,4.511
				c0,9.496,4.214,18.001,10.864,23.771c1.533,1.33,3.195,2.512,4.967,3.529c-1.913,2.929-3.029,6.426-3.029,10.186
				c0,3.36,0.687,6.51,2.243,9.233c-0.596,2.091-1.15,4.626-1.15,7.533v4.896c0,0.64,0.307,0.664,0.486,1.268
				c0.451-0.78,1.61-1.831,2.637-1.831h0.349c0.749,0,1.381,0.237,1.816,0.665c0.506-0.428,1.212-0.665,1.961-0.665h0.351
				c0.582,0,1.09,0.147,1.494,0.41c0.458-0.263,1.012-0.41,1.595-0.41h0.348c1.381,0,2.288,1.399,2.349,2.744
				c0.439-0.869,0.615-1.21,0.615-2.181v-3.317c1,0.203,1.803,0.315,2.965,0.315c1.188,0,3.035-0.116,3.035-0.328v3.33
				c0,0.625,0.633,0.632,0.828,1.224C80.289,122.229,81.743,121.194,82.752,121.194z M107.203,48.138
				c2.089,0,3.782,1.693,3.782,3.782c0,2.071-1.665,3.75-3.729,3.78c-0.531-2.37-1.322-4.642-2.355-6.776
				C105.539,48.433,106.336,48.138,107.203,48.138z M45.876,55.697c-2.032-0.066-3.66-1.729-3.66-3.776
				c0-2.089,1.694-3.782,3.783-3.782c0.844,0,1.621,0.28,2.251,0.748C47.208,51.031,46.41,53.313,45.876,55.697z M59.324,73.47
				c0.768-2.206,2.507-3.961,4.777-5.284c-4.538-1.313-7.858-5.492-7.858-10.453c0-6.015,4.874-10.89,10.889-10.89
				c4.074,0,7.617,2.238,9.485,5.549c1.868-3.311,5.411-5.549,9.485-5.549c6.013,0,10.89,4.875,10.89,10.89
				c0,4.778-3.082,8.827-7.364,10.293c2.405,1.34,4.251,3.149,5.05,5.443c1.545,4.443,2.499,10.404-7.181,12.755
				c-0.577,1.552-2.701,4.529-10.495,4.529c-7.843,0-10.019-3.014-10.619-4.557C56.832,83.824,57.788,77.895,59.324,73.47z
				 M76.567,110.867c-6.955,0-12.592-5.638-12.592-12.592c0-2.245,0.593-4.348,1.623-6.172c3.415,1.271,7.11,1.969,10.969,1.969
				c3.857,0,7.552-0.698,10.969-1.969c1.027,1.825,1.622,3.927,1.622,6.172C89.157,105.229,83.52,110.867,76.567,110.867z"/>
			<path style="fill:#FFD6BC;" d="M93.639,122.969c-0.387-0.744-1.281-1.775-2.285-1.775h-0.349c-0.75,0-1.456,0.237-1.963,0.665
				c-0.436-0.428-1.065-0.665-1.813-0.665h-0.351c-0.749,0-1.455,0.237-1.961,0.665c-0.436-0.428-1.066-0.665-1.814-0.665h-0.351
				c-1.009,0-2.463,1.035-2.926,1.787c-0.189,0.309-0.828,1.273-0.828,1.688v3.1c0,1.423,2.331,1.425,3.754,1.425h0.351
				c0.748,0,1.379-0.412,1.814-1.005c0.506,0.593,1.212,1.005,1.961,1.005h0.351c0.748,0,1.378-0.412,1.813-1.005
				c0.507,0.593,1.213,1.005,1.963,1.005h0.349c1.423,0,2.645-0.002,2.645-1.425v-1.593v-1.506
				C93.998,124.25,93.799,123.281,93.639,122.969z"/>
			<path style="fill:#FFD6BC;" d="M89.157,98.275c0-2.245-0.595-4.347-1.622-6.172c-3.417,1.271-7.111,1.969-10.969,1.969
				c-3.858,0-7.554-0.698-10.969-1.969c-1.03,1.824-1.623,3.927-1.623,6.172c0,6.954,5.637,12.592,12.592,12.592
				C83.52,110.867,89.157,105.229,89.157,98.275z"/>
			<path style="fill:#FF9669;" d="M66.383,86.197c0.601,1.543,2.776,4.557,10.619,4.557c7.794,0,9.918-2.977,10.495-4.529
				c-2.639,0.642-6.068,1.016-10.495,1.016C72.507,87.241,69.039,86.857,66.383,86.197z"/>
			<path style="fill:#FFD6BC;" d="M77.002,87.241c4.427,0,7.856-0.374,10.495-1.016c9.68-2.351,8.726-8.312,7.181-12.755
				c-0.799-2.294-2.645-4.103-5.05-5.443c4.282-1.467,7.364-5.516,7.364-10.293c0-6.015-4.877-10.89-10.89-10.89
				c-4.074,0-7.617,2.238-9.485,5.549c-1.868-3.311-5.411-5.549-9.485-5.549c-6.015,0-10.889,4.875-10.889,10.89
				c0,4.961,3.32,9.139,7.858,10.453c-2.27,1.323-4.01,3.078-4.777,5.284c-1.536,4.425-2.492,10.354,7.059,12.727
				C69.039,86.857,72.507,87.241,77.002,87.241z M86.883,51.853c2.983,0,5.399,2.418,5.399,5.399c0,2.982-2.416,5.399-5.399,5.399
				c-2.981,0-5.398-2.417-5.398-5.399C81.485,54.271,83.902,51.853,86.883,51.853z M77.002,64.218c3.393,0,6.311,0.445,7.545,1.885
				c0.106,0.125,0.244,0.257,0.321,0.398c0.97,1.757-3.457,1.405-2.167,2.635c0,0-0.37,2.284-5.699,2.284
				c-5.329,0-5.699-2.284-5.699-2.284c1.288-1.229-3.137-0.877-2.167-2.635c0.076-0.141,0.215-0.273,0.322-0.398
				C70.691,64.663,73.611,64.218,77.002,64.218z M61.371,57.252c0-2.981,2.416-5.399,5.397-5.399c2.983,0,5.4,2.418,5.4,5.399
				c0,2.982-2.417,5.399-5.4,5.399C63.787,62.651,61.371,60.234,61.371,57.252z"/>
			<path style="fill:#583B2B;" d="M69.458,66.103c-0.108,0.125-0.246,0.257-0.322,0.398c-0.97,1.757,3.455,1.405,2.167,2.635
				c0,0,0.37,2.284,5.699,2.284c5.329,0,5.699-2.284,5.699-2.284c-1.29-1.229,3.137-0.877,2.167-2.635
				c-0.077-0.141-0.215-0.273-0.321-0.398c-1.234-1.439-4.152-1.885-7.545-1.885C73.611,64.218,70.691,64.663,69.458,66.103z"/>
			<path style="fill:#FFFFFF;" d="M72.169,57.252c0-2.981-2.417-5.399-5.4-5.399c-2.981,0-5.397,2.418-5.397,5.399
				c0,2.982,2.416,5.399,5.397,5.399C69.752,62.651,72.169,60.234,72.169,57.252z M64.843,59.178
				c-0.545-0.514-0.887-1.24-0.887-2.048c0-1.555,1.258-2.816,2.812-2.816c1.557,0,2.816,1.261,2.816,2.816
				c0,0.601-0.188,1.156-0.511,1.613c-0.19-0.77-0.795-1.379-1.872-1.379C65.946,57.363,65.128,58.215,64.843,59.178z"/>
			<path style="fill:#353A42;" d="M69.074,58.743c0.322-0.457,0.511-1.012,0.511-1.613c0-1.555-1.26-2.816-2.816-2.816
				c-1.555,0-2.812,1.261-2.812,2.816c0,0.809,0.342,1.535,0.887,2.048c0.285-0.963,1.103-1.815,2.359-1.815
				C68.28,57.363,68.884,57.973,69.074,58.743z"/>
			<path style="fill:#FFFFFF;" d="M86.883,62.651c2.983,0,5.399-2.417,5.399-5.399c0-2.981-2.416-5.399-5.399-5.399
				c-2.981,0-5.398,2.418-5.398,5.399C81.485,60.234,83.902,62.651,86.883,62.651z M86.883,54.314c1.556,0,2.814,1.261,2.814,2.816
				c0,0.809-0.342,1.535-0.887,2.048c-0.285-0.963-1.102-1.815-2.36-1.815c-1.077,0-1.682,0.609-1.874,1.379
				c-0.319-0.457-0.509-1.012-0.509-1.613C84.068,55.575,85.328,54.314,86.883,54.314z"/>
			<path style="fill:#353A42;" d="M86.45,57.363c1.258,0,2.075,0.852,2.36,1.815c0.545-0.514,0.887-1.24,0.887-2.048
				c0-1.555-1.259-2.816-2.814-2.816c-1.555,0-2.815,1.261-2.815,2.816c0,0.601,0.189,1.156,0.509,1.613
				C84.769,57.973,85.373,57.363,86.45,57.363z"/>
		</g>
		<path style="opacity:0.3;fill:#FFFFFF;" d="M119.009,76.251c-8.57-3.147-16.632,7.428-20.154,12.965
			c-0.552-1.102-1.125-2.042-1.69-2.835c6.651-5.769,10.864-14.275,10.864-23.771c0-1.525-0.115-3.023-0.325-4.491
			c3.438-0.189,6.17-3.029,6.17-6.515c0-3.608-2.926-6.534-6.532-6.534c-1.44,0-2.767,0.472-3.848,1.261
			c-5.271-8.702-14.642-14.642-25.435-15.146c0.492-0.583,1.139-1.1,1.733-1.506c0.457-0.312-0.057-0.93-0.505-0.758
			c-1.164,0.448-2.066,1.24-2.627,2.229c-0.021,0-0.039,0-0.06-0.001v87.605c1.176-0.002,2.324-0.117,3.439-0.327v3.33
			c0,0.625,0.113,1.24,0.31,1.832c-0.19,0.309-0.31,0.666-0.31,1.081v3.1c0,1.423,1.29,2.893,2.713,2.893h0.351
			c0.748,0,1.379-0.413,1.814-1.006c0.506,0.593,1.212,1.006,1.961,1.006h0.351c0.748,0,1.378-0.413,1.813-1.006
			c0.507,0.593,1.213,1.006,1.963,1.006h0.349c1.423,0,2.439-1.47,2.439-2.893v-1.594c0.398,0.181,0.824,0.318,1.278,0.393
			c0.285,0.047,0.568,0.07,0.851,0.07c2.477,0,4.662-1.789,5.082-4.314c1.604-9.673,1.786-17.92,0.56-24.618
			c2.311-3.735,6.124-9.593,8.964-12.433c4.354-4.355,6.646-2.063,10.315-0.344C124.51,86.649,130.47,80.459,119.009,76.251z"/>
	</g>
</g>
<g>
</g>
<g>
</g>
<g>
</g>
<g>
</g>
<g>
</g>
<g>
</g>
<g>
</g>
<g>
</g>
<g>
</g>
<g>
</g>
<g>
</g>
<g>
</g>
<g>
</g>
<g>
</g>
<g>
</g>
</svg>
