<?xml version="1.0" encoding="iso-8859-1"?>
<!-- Generator: Adobe Illustrator 19.0.0, SVG Export Plug-In . SVG Version: 6.00 Build 0)  -->
<svg version="1.1" id="Layer_1" xmlns="http://www.w3.org/2000/svg" xmlns:xlink="http://www.w3.org/1999/xlink" x="0px" y="0px"
	 viewBox="0 0 473.654 473.654" style="enable-background:new 0 0 473.654 473.654;" xml:space="preserve">
<circle style="fill:#7397f0;" cx="236.827" cy="236.827" r="236.827"/>
<g>
	<path style="fill:#C4BEBA;" d="M205.157,121.719c12.576,40.96,22.034,115.373-1.705,122.662c0,0-18.99-55.26-31.562-96.219
		c-12.572-40.956-25.01-88.082-25.01-88.082C158.001,56.662,192.584,80.76,205.157,121.719z"/>
	<path style="fill:#C4BEBA;" d="M281.545,405.841c1.38,4.499-4.574,10.329-13.305,13.01l0,0c-8.728,2.674-16.925,1.197-18.309-3.31
		l-63.838-235.215c-1.387-4.506,1.148-9.282,5.654-10.673l0,0c4.506-1.38,9.274,1.156,10.665,5.662L281.545,405.841z"/>
</g>
<path style="fill:#D0D0CF;" d="M146.876,60.076c0,0,12.438,47.126,25.01,88.082c12.572,40.96,31.562,96.219,31.562,96.219
	c0.007-0.007,0.015-0.007,0.022-0.015l46.457,171.175c1.384,4.506,9.585,5.983,18.309,3.31c8.732-2.681,14.685-8.508,13.305-13.01
	C281.545,405.841,158.001,56.662,146.876,60.076z"/>
<g>
	<path style="fill:#C4BEBA;" d="M203.713,410.998c-1.724,4.383-10.015,5.228-18.507,1.892l0,0
		c-8.496-3.347-13.986-9.603-12.262-13.986l96.623-223.772c1.728-4.383,6.683-6.537,11.065-4.82l0,0
		c4.39,1.731,6.544,6.683,4.82,11.065L203.713,410.998z"/>
	<path style="fill:#C4BEBA;" d="M358.419,85.618c1.586-4.028,0.576-8.186-2.251-9.297c-2.827-1.111-6.398,1.249-7.984,5.277
		l-28.114,71.471c-2.868-1.907-6.679-4.121-11.724-6.574l27.452-69.773c1.586-4.024,0.576-8.182-2.251-9.293
		c-2.827-1.118-6.398,1.242-7.984,5.269l-27.269,69.313c-2.457-1.01-5.097-2.053-7.973-3.119c-1.455-0.542-2.857-1.043-4.229-1.526
		l27.134-68.965c1.586-4.024,0.576-8.186-2.251-9.297c-2.827-1.114-6.398,1.245-7.984,5.273l-27.411,69.691
		c-5.478-1.526-10.048-2.476-13.713-3.051l28.402-72.196c1.586-4.028,0.576-8.186-2.251-9.3c-2.823-1.111-6.398,1.249-7.977,5.277
		l-30.01,76.284c-0.251,0.628-0.415,1.264-0.542,1.892c-14.558,38.11-13.571,59.773,16.783,71.718
		c30.261,11.907,45.739-3.141,61.004-40.69c0.426-0.636,0.819-1.324,1.122-2.09L358.419,85.618z"/>
</g>
<path style="fill:#D0D0CF;" d="M286.096,137.362l27.134-68.965c1.586-4.024,0.576-8.186-2.251-9.297
	c-2.827-1.114-6.398,1.245-7.984,5.273l-27.411,69.691c-5.478-1.526-10.048-2.476-13.713-3.051l28.402-72.196
	c1.586-4.028,0.576-8.186-2.251-9.3c-2.823-1.111-6.398,1.249-7.977,5.277l-30.01,76.284c-0.251,0.628-0.415,1.264-0.542,1.892
	c-13.167,34.483-13.616,55.495,8.904,68.034L172.94,398.904c-1.724,4.383,3.766,10.643,12.262,13.986
	c8.493,3.339,16.783,2.491,18.507-1.892c0,0,76.186-237.598,85.655-272.417C289.372,138.581,286.197,137.399,286.096,137.362z"/>
<g>
</g>
<g>
</g>
<g>
</g>
<g>
</g>
<g>
</g>
<g>
</g>
<g>
</g>
<g>
</g>
<g>
</g>
<g>
</g>
<g>
</g>
<g>
</g>
<g>
</g>
<g>
</g>
<g>
</g>
</svg>
