<?xml version="1.0" encoding="iso-8859-1"?>
<!-- Generator: Adobe Illustrator 19.0.0, SVG Export Plug-In . SVG Version: 6.00 Build 0)  -->
<svg version="1.1" id="Layer_1" xmlns="http://www.w3.org/2000/svg" xmlns:xlink="http://www.w3.org/1999/xlink" x="0px" y="0px"
	 viewBox="0 0 473.654 473.654" style="enable-background:new 0 0 473.654 473.654;" xml:space="preserve">
<circle style="fill:#7397f0;" cx="236.827" cy="236.827" r="236.827"/>
<g>
	<path style="fill:#5E5F5E;" d="M110.519,316.757c0,14.188-11.495,25.683-25.683,25.683l0,0c-14.188,0-25.687-11.495-25.687-25.683
		v-56.924c0-14.188,11.499-25.683,25.687-25.683l0,0c14.188,0,25.683,11.495,25.683,25.683V316.757z"/>
	<path style="fill:#5E5F5E;" d="M418.743,316.757c0,14.188-11.499,25.683-25.683,25.683l0,0c-14.192,0-25.687-11.495-25.687-25.683
		v-56.924c0-14.188,11.495-25.683,25.687-25.683l0,0c14.184,0,25.683,11.495,25.683,25.683V316.757z"/>
</g>
<path style="fill:#D32027;" d="M384.701,176.807c-16.267-43.196-34.03-100.467-62.462-100.467c0,0-50.712-4.162-81.167-4.162
	c-28.701,0-81.238,4.162-81.238,4.162c-30.496,0-47.582,57.597-63.214,100.789c-23.668,10.228-45.799,38.97-40.249,61.183
	c5.553,22.213,29.838,91.631,66.643,91.631h236.023c36.805,0,65.256-74.971,66.643-91.631S408.769,186.863,384.701,176.807z"/>
<path style="fill:#C82127;" d="M173.898,92.08c0,0,43.413-3.687,67.122-3.687c25.171,0,67.073,3.687,67.073,3.687
	c23.847,0,50.559,51.367,65.357,89.593c7.079,18.298-11.821,90.831-40.488,90.831H149.086c-28.664,0-47.814-72.574-40.986-90.92
	C122.325,143.353,148.401,92.08,173.898,92.08z"/>
<g>
	<path style="fill:#A81E22;" d="M149.089,272.503c-28.664,0-47.814-72.574-40.986-90.92c0,0,7,34.542,15.841,52.571
		C135.518,257.758,149.089,272.503,149.089,272.503z"/>
	<path style="fill:#A81E22;" d="M332.553,272.503c28.66,0,47.81-72.574,40.986-90.92c0,0-7,34.542-15.841,52.571
		C346.124,257.758,332.553,272.503,332.553,272.503z"/>
</g>
<path style="fill:#C82127;" d="M118.851,260.529c0,10.351-21.581,11.802-31.932,11.802s-18.743-8.395-18.743-18.746
	c0-10.347,8.388-18.743,18.743-18.743S118.851,250.181,118.851,260.529z"/>
<path style="fill:#FFFFFF;" d="M113.993,259.194c0,8.362-17.441,9.547-25.811,9.547c-8.365,0-15.149-6.791-15.149-15.157
	c0-8.365,6.78-15.149,15.149-15.149C96.552,238.439,113.993,250.832,113.993,259.194z"/>
<path style="fill:#A81E22;" d="M337.755,301.484c0,10.329-8.369,18.702-18.698,18.702H163.004c-10.329,0-18.698-8.373-18.698-18.702
	l0,0c0-10.325,8.369-18.698,18.698-18.698h156.052C329.382,282.787,337.755,291.159,337.755,301.484L337.755,301.484z"/>
<path style="fill:#C82127;" d="M363.902,260.529c0,10.351,21.581,11.802,31.932,11.802s18.743-8.395,18.743-18.746
	c0-10.347-8.388-18.743-18.743-18.743C385.479,234.841,363.902,250.181,363.902,260.529z"/>
<path style="fill:#FFFFFF;" d="M367.656,259.497c0,8.818,18.384,10.052,27.198,10.052c8.822,0,15.968-7.146,15.968-15.968
	c0-8.81-7.143-15.968-15.968-15.968C386.04,237.62,367.656,250.686,367.656,259.497z"/>
<g>
	<circle style="fill:#F9F298;" cx="91.545" cy="254.029" r="12.958"/>
	<circle style="fill:#F9F298;" cx="391.421" cy="254.029" r="12.958"/>
</g>
<path style="opacity:0.8;fill:#B1D4D7;enable-background:new    ;" d="M164.523,89.888c0,0,49.516-3.399,76.564-3.399
	c28.701,0,76.486,3.399,76.486,3.399c27.194,0,34.797,41.618,48.801,76.945c6.705,16.907-257.672,16.858-251.21-0.097
	C128.641,131.424,135.459,89.888,164.523,89.888z"/>
<path style="fill:#D3E0E1;" d="M164.523,89.888c0,0,49.516-3.399,76.564-3.399c11.675,0,26.502,0.561,39.998,1.234l-70.177,91.444
	c-52.997-1.129-98.467-5.269-95.748-12.43C128.641,131.424,135.459,89.888,164.523,89.888z"/>
<g>
	<path style="fill:#8D191C;" d="M305.609,295.183H174.593c-1.395,0-2.52-1.126-2.52-2.517c0-1.395,1.126-2.517,2.52-2.517h131.016
		c1.395,0,2.524,1.122,2.524,2.517S307.004,295.183,305.609,295.183z"/>
	<path style="fill:#8D191C;" d="M305.609,304.005H174.593c-1.395,0-2.52-1.126-2.52-2.521c0-1.387,1.126-2.517,2.52-2.517h131.016
		c1.395,0,2.524,1.129,2.524,2.517C308.133,302.879,307.004,304.005,305.609,304.005z"/>
	<path style="fill:#8D191C;" d="M305.609,312.819H174.593c-1.395,0-2.52-1.122-2.52-2.517c0-1.387,1.126-2.517,2.52-2.517h131.016
		c1.395,0,2.524,1.129,2.524,2.517C308.133,311.697,307.004,312.819,305.609,312.819z"/>
</g>
<g>
	<path style="fill:#F1E7A4;" d="M266.598,248.7c-10.4,1.829-18.485,10.392-18.485,10.392v-0.011
		c-0.037,0.011-0.052,0.037-0.082,0.056c-2.902,1.627-6.309,1.062-7.621-1.26c-1.301-2.326-0.007-5.531,2.891-7.158
		C253.349,245.066,266.598,248.7,266.598,248.7z"/>
	<path style="fill:#F1E7A4;" d="M262.398,253.85c-8.575,0.643-15.837,6.914-15.837,6.914l0,0c-0.022,0.011-0.041,0.026-0.067,0.034
		c-2.487,1.085-5.202,0.359-6.073-1.638c-0.868-1.993,0.438-4.476,2.921-5.568C251.954,249.83,262.398,253.85,262.398,253.85z"/>
	<path style="fill:#F1E7A4;" d="M257.208,257.496c-6.413-0.292-12.352,3.71-12.352,3.71l-0.004-0.011
		c-0.019,0.004-0.041,0.011-0.056,0.015c-1.937,0.58-3.882-0.202-4.345-1.761c-0.467-1.552,0.729-3.276,2.666-3.863
		C249.83,253.581,257.208,257.496,257.208,257.496z"/>
	<path style="fill:#F1E7A4;" d="M213.758,248.7c10.4,1.829,18.485,10.392,18.485,10.392v-0.011c0.034,0.011,0.052,0.037,0.079,0.056
		c2.902,1.627,6.312,1.062,7.621-1.26c1.305-2.326,0.011-5.531-2.887-7.158C227.003,245.066,213.758,248.7,213.758,248.7z"/>
	<path style="fill:#F1E7A4;" d="M217.954,253.85c8.579,0.643,15.841,6.914,15.841,6.914l0,0c0.022,0.011,0.041,0.026,0.067,0.034
		c2.487,1.085,5.202,0.359,6.073-1.638c0.868-1.993-0.438-4.476-2.921-5.568C228.402,249.83,217.954,253.85,217.954,253.85z"/>
	<path style="fill:#F1E7A4;" d="M223.148,257.496c6.41-0.292,12.348,3.71,12.348,3.71l0.004-0.011
		c0.019,0.004,0.041,0.011,0.06,0.015c1.937,0.58,3.882-0.202,4.342-1.761c0.471-1.552-0.725-3.276-2.663-3.863
		C230.526,253.581,223.148,257.496,223.148,257.496z"/>
</g>
<circle style="fill:#A69C60;" cx="239.594" cy="256.123" r="7.704"/>
<circle style="fill:#FAF3D1;" cx="239.594" cy="256.123" r="3.646"/>
<g>
</g>
<g>
</g>
<g>
</g>
<g>
</g>
<g>
</g>
<g>
</g>
<g>
</g>
<g>
</g>
<g>
</g>
<g>
</g>
<g>
</g>
<g>
</g>
<g>
</g>
<g>
</g>
<g>
</g>
</svg>
