<?xml version="1.0" encoding="iso-8859-1"?>
<!-- Generator: Adobe Illustrator 19.0.0, SVG Export Plug-In . SVG Version: 6.00 Build 0)  -->
<svg version="1.1" id="Layer_1" xmlns="http://www.w3.org/2000/svg" xmlns:xlink="http://www.w3.org/1999/xlink" x="0px" y="0px"
	 viewBox="0 0 512.002 512.002" style="enable-background:new 0 0 512.002 512.002;" xml:space="preserve">
<circle style="fill:#7397f0;" cx="256.001" cy="256" r="256"/>
<path style="fill:#7397f0;" d="M511.942,260.563L338.326,86.947l-72.247,65.619l-21.659,56.046l1.503-19.844l-70.777,17.206
	l45.951,45.951l-71.818,30.868l104.56,104.56h-67.605l-11.088,45.506l79.12,79.12c0.579,0.003,1.153,0.022,1.734,0.022
	C395.86,512,509.506,399.841,511.942,260.563z"/>
<polygon style="fill:#366695;" points="266.079,380.376 266.079,260.998 245.923,260.998 245.923,380.376 179.258,380.376 
	179.258,383.476 179.258,394.33 179.258,427.661 193.211,427.661 193.211,394.33 249.026,394.33 249.026,427.661 262.979,427.661 
	262.979,394.33 318.791,394.33 318.791,427.661 332.744,427.661 332.744,394.33 332.744,383.476 332.744,380.376 "/>
<polygon style="fill:#273B7A;" points="266.079,380.376 266.079,260.998 255.427,260.998 255.427,427.661 262.979,427.661 
	262.979,394.33 318.791,394.33 318.791,427.661 332.744,427.661 332.744,394.33 332.744,383.476 332.744,380.376 "/>
<rect x="230.418" y="184.251" style="fill:#366695;" width="51.162" height="76.743"/>
<g>
	<rect x="255.432" y="184.251" style="fill:#273B7A;" width="26.155" height="76.743"/>
	<path style="fill:#273B7A;" d="M324.847,209.836H187.155c-11.426,0-20.687-9.263-20.687-20.687v-86.53
		c0-11.426,9.263-20.687,20.687-20.687h137.692c11.426,0,20.687,9.263,20.687,20.687v86.53
		C345.534,200.575,336.273,209.836,324.847,209.836z"/>
</g>
<path style="fill:#121149;" d="M324.847,81.932h-69.42v127.905h69.42c11.426,0,20.687-9.263,20.687-20.687v-86.531
	C345.534,91.193,336.273,81.932,324.847,81.932z"/>
<path style="fill:#273B7A;" d="M350.816,286.579h-189.63c-11.426,0-20.687-9.263-20.687-20.687v-9.788
	c0-11.426,9.263-20.687,20.687-20.687h189.63c11.426,0,20.687,9.263,20.687,20.687v9.788
	C371.503,277.318,362.24,286.579,350.816,286.579z"/>
<path style="fill:#121149;" d="M350.816,235.417h-95.389v51.162h95.389c11.426,0,20.687-9.263,20.687-20.687v-9.787
	C371.503,244.679,362.24,235.417,350.816,235.417z"/>
<circle style="fill:#223849;" cx="186.234" cy="419.909" r="17.055"/>
<circle style="fill:#13222D;" cx="327.319" cy="419.909" r="17.055"/>
<circle style="fill:#223849;" cx="256.001" cy="419.909" r="17.055"/>
<path style="fill:#13222D;" d="M256.001,402.856c-0.193,0-0.381,0.022-0.574,0.029v34.049c0.193,0.007,0.381,0.029,0.574,0.029
	c9.419,0,17.055-7.635,17.055-17.055C273.055,410.491,265.42,402.856,256.001,402.856z"/>
<g>
</g>
<g>
</g>
<g>
</g>
<g>
</g>
<g>
</g>
<g>
</g>
<g>
</g>
<g>
</g>
<g>
</g>
<g>
</g>
<g>
</g>
<g>
</g>
<g>
</g>
<g>
</g>
<g>
</g>
</svg>
